<svg width="650" height="60" viewBox="0 0 650 60" fill="none" xmlns="http://www.w3.org/2000/svg">
  <!-- Nike Logo -->
  <g transform="translate(30, 15)">
    <path d="M60 19.5L16.105 38.19c-3.64 1.54-6.6975 2.3125-9.17 2.3125-2.8 0-4.8325-0.98-6.0925-2.9425-.7925-1.26-1.025-2.8575-.7-4.795.325-1.9375 1.19-4 2.59-6.195 1.1675-1.775 3.08-4.1075 5.7425-7 .1325-.145.1775-.38.14-.5825-.0325-.2025-.1675-.355-.345-.425a.915.915 0 00-.545.1875c-4.7675 3.8825-6.865 7.5825-7.205 11.115-.335 3.0625.7225 5.4325 3.1675 7.11 1.75 1.1675 4.1075 1.75 7.07 1.75 3.01 0 6.375-.63 10.09-1.89L60 19.5z" fill="white"/>
  </g>

  <!-- BuzzFeed Logo -->
  <g transform="translate(160, 15)">
    <path d="M32.4275 13.985a13.875 13.875 0 11-27.75 0 13.875 13.875 0 0127.75 0m26.4025 13.875a13.875 13.875 0 11-27.75 0 13.875 13.875 0 0127.75 0M32.4275 53.64a13.875 13.875 0 01-13.875 13.875A13.875 13.875 0 014.6775 53.64a13.875 13.875 0 0127.75 0" fill="white"/>
  </g>

  <!-- Esprit Logo -->
  <g transform="translate(290, 15)">
    <path d="M60 10.6375L30 28.47 0 10.6375V5.8175L30 23.65 60 5.8175m0 26.9875v4.82l-30-17.8325-30 17.8325v-4.82l30-17.8325z" fill="white"/>
  </g>

  <!-- National Geographic Logo -->
  <g transform="translate(420, 15)">
    <path d="M0 0v60h60V0H0zm55.9625 55.9625H4.0375V4.0375h51.925v51.925z M42.405 17.595H17.595v24.81h24.81v-24.81z" fill="white"/>
  </g>

  <!-- Huffpost Logo -->
  <g transform="translate(550, 15)">
    <path d="M7.1525 12.5h12.54v33.11h8.155V12.5h12.5v33.11H60V47.5H0V12.5h7.1525z" fill="white"/>
  </g>
</svg>
