<svg width="120" height="30" viewBox="0 0 120 30" fill="none" xmlns="http://www.w3.org/2000/svg">
  <path d="M14.384 23L7.538 12.416V23H3.274V7H7.538L14.384 17.584V7H18.648V23H14.384Z" fill="white"/>
  <path d="M35.4178 7V10.592H30.0098V13.328H34.5458V16.712H30.0098V19.408H35.4178V23H25.6738V7H35.4178Z" fill="white"/>
  <path d="M54.1177 7L47.8537 23H42.6057L36.3417 7H41.1297L45.2297 18.32L49.3297 7H54.1177Z" fill="white"/>
  <path d="M65.3695 23.288C63.4495 23.288 61.8335 22.872 60.5215 22.04C59.2335 21.208 58.3855 20.024 57.9775 18.488L61.7375 17.224C62.1695 18.92 63.3855 19.768 65.3855 19.768C66.2815 19.768 66.9535 19.608 67.4015 19.288C67.8495 18.968 68.0735 18.544 68.0735 18.016C68.0735 17.296 67.3855 16.824 66.0095 16.6L63.4655 16.216C61.9615 15.992 60.7775 15.496 59.9135 14.728C59.0735 13.944 58.6575 12.904 58.6575 11.608C58.6575 10.056 59.2495 8.824 60.4335 7.912C61.6175 7 63.2015 6.544 65.1855 6.544C66.9215 6.544 68.3775 6.944 69.5535 7.744C70.7295 8.528 71.5135 9.576 71.9055 10.888L68.2175 12.104C67.8815 10.84 66.8815 10.208 65.2175 10.208C64.4095 10.208 63.7935 10.36 63.3695 10.664C62.9455 10.952 62.7335 11.336 62.7335 11.816C62.7335 12.488 63.3055 12.92 64.4495 13.112L66.8015 13.464C69.8895 13.928 71.4335 15.448 71.4335 18.024C71.4335 19.56 70.8175 20.784 69.5855 21.696C68.3695 22.592 67.0175 23.064 65.3695 23.288C63.7215 23.288 62.0895 23.288 60.4735 23.288H65.3695Z" fill="white"/>
  <path d="M83.1254 23.288C81.1094 23.288 79.4934 22.848 78.2774 21.968C77.0614 21.088 76.2534 19.888 75.8534 18.368L79.4454 17.096C79.9094 18.92 81.1334 19.832 83.1094 19.832C84.0214 19.832 84.7014 19.656 85.1494 19.304C85.5974 18.936 85.8214 18.456 85.8214 17.864C85.8214 17.144 85.1414 16.68 83.7814 16.472L81.4294 16.104C79.9574 15.896 78.7974 15.408 77.9494 14.64C77.1174 13.872 76.7014 12.832 76.7014 11.52C76.7014 9.984 77.2774 8.8 78.4294 7.968C79.5974 7.12 81.1014 6.696 82.9414 6.696C84.6294 6.696 86.0534 7.096 87.2134 7.896C88.3734 8.68 89.1334 9.728 89.4934 11.04L85.9654 12.264C85.5654 10.904 84.5574 10.224 82.9414 10.224C82.1654 10.224 81.5734 10.368 81.1654 10.656C80.7574 10.944 80.5534 11.328 80.5534 11.808C80.5534 12.496 81.1174 12.936 82.2454 13.128L84.4614 13.464C86.0134 13.688 87.1654 14.184 87.9174 14.952C88.6854 15.704 89.0694 16.728 89.0694 18.024C89.0694 19.56 88.4854 20.768 87.3174 21.648C86.1654 22.528 84.7574 22.968 83.0934 22.968L83.1254 23.288Z" fill="white"/>
  <path d="M96.3326 10.592V23H92.0686V10.592H87.9326V7H100.469V10.592H96.3326Z" fill="white"/>
</svg>
